# xmcd
#
# Track frame offsets: 
#        150
#        19208
#        35424
#        52774
#        71557
#        87452
#        111744
#        132835
#        147644
#        164553
#        181202
#        196287
#
# Disc length: 2858 seconds
#
# Revision: 4
# Processed by: cddbd v1.5.2PL0 Copyright (c) Steve Scherf et al.
# Submitted via: ExactAudioCopyFreeDBPlugin 1.0
#
DISCID=b10b280c
DTITLE=Al Green - Everything's OK
DYEAR=2004
DGENRE=Soul
TTITLE0=Everything's OK
TTITLE1=You Are So Beautiful
TTITLE2=Build Me Up
TTITLE3=Perfect to Me
TTITLE4=Nobody But You
TTITLE5=Real Love
TTITLE6=I Can Make Music
TTITLE7=Be My Baby
TTITLE8=Magic Road
TTITLE9=I Wanna Hold You
TTITLE10=Another Day
TTITLE11=All the Time
EXTD=YEAR: 2005
EXTT0=
EXTT1=
EXTT2=
EXTT3=
EXTT4=
EXTT5=
EXTT6=
EXTT7=
EXTT8=
EXTT9=
EXTT10=
EXTT11=
PLAYORDER=
